<svg xmlns="http://www.w3.org/2000/svg" xmlns:xlink="http://www.w3.org/1999/xlink" width="669" height="669" viewBox="0 0 669 669"><defs><style>.a{fill:url(#a);}.b,.c{fill:#fff;}.c{stroke:#fff;stroke-miterlimit:10;}.c,.d{opacity:0.4;}</style><linearGradient id="a" x1="0.145" y1="0.854" x2="0.908" y2="0.091" gradientUnits="objectBoundingBox"><stop offset="0.023" stop-color="#005fab"/><stop offset="0.982" stop-color="#0c2372"/></linearGradient></defs><rect class="a" width="669" height="669" rx="78.493" transform="translate(669) rotate(90)"/><g transform="translate(81.448 131.168)"><g transform="translate(114.886 232.445)"><path class="b" d="M429.993,699.511H388.1v-7.99l30.018-35.383H388.446v-7.99h40.976v7.99L399.4,691.522h30.589Z" transform="translate(-388.104 -645.866)"/><path class="b" d="M522.844,698.293h-9.131v-8.333a24.158,24.158,0,0,1-20.088,10.615c-14.724,0-27.279-12.555-27.279-27.964s12.555-27.964,27.279-27.964a24.158,24.158,0,0,1,20.088,10.615v-8.333h9.131Zm-28.306-45.655c-10.5,0-19.061,8.9-19.061,19.974s8.561,19.975,19.061,19.975,19.175-8.9,19.175-19.975S505.038,652.638,494.538,652.638Z" transform="translate(-415.329 -644.648)"/><path class="b" d="M610.219,700.576a24.161,24.161,0,0,1-20.089-10.615v39.15H581V646.931h9.131v8.333a24.161,24.161,0,0,1,20.089-10.615c14.723,0,27.278,12.555,27.278,27.964S624.942,700.576,610.219,700.576Zm-.914-47.938c-10.5,0-19.175,8.9-19.175,19.974s8.675,19.975,19.175,19.975,19.061-8.9,19.061-19.975S619.806,652.638,609.3,652.638Z" transform="translate(-455.222 -644.648)"/><path class="b" d="M719.62,700.576a24.16,24.16,0,0,1-20.088-10.615v39.15H690.4V646.931h9.131v8.333a24.16,24.16,0,0,1,20.088-10.615c14.724,0,27.279,12.555,27.279,27.964S734.344,700.576,719.62,700.576Zm-.913-47.938c-10.5,0-19.175,8.9-19.175,19.974s8.675,19.975,19.175,19.975,19.061-8.9,19.061-19.975S729.208,652.638,718.707,652.638Z" transform="translate(-493.289 -644.648)"/></g><g transform="translate(0 0)"><path class="c" d="M316.455,469.217l-24.844-62.1-8.887,26.669H232.182c13.545,21.033,37.038,41.118,66.694,66.387,8.481,7.227,17.5,14.912,26.983,23.208l4.287,3.754,4.289-3.754c9.478-8.3,18.5-15.981,26.98-23.208,29.656-25.269,53.149-45.355,66.694-66.387H334.173Z" transform="translate(-218.964 -329.554)"/><path class="b" d="M375.668,288.163c-26.682.1-43.669,18.285-52.576,34.971-8.862-16.585-25.778-34.971-52.129-34.971h-.445c-31,.248-56.949,26.694-58.527,60.209a68.829,68.829,0,0,0,5.716,31h48.574l17.17-51.507,27.274,68.186,8.34-16.679H428.476a68.776,68.776,0,0,0,5.716-31C432.616,314.857,406.67,288.411,375.668,288.163Z" transform="translate(-211.911 -288.163)"/></g><g class="d" transform="translate(113.352 329.724)"><path class="b" d="M431.17,793.838l-12.027,56.025h-5.976l1.046-4.631a18.429,18.429,0,0,1-13.521,6.05c-7.694,0-14.94-5.229-14.94-15.388,0-12.774,11.428-21.066,21.289-21.066,4.93,0,9.636,2.017,12.326,6.275l5.827-27.265Zm-23.979,26.145c-8.068,0-15.388,7.694-15.388,15.688,0,5.826,3.959,10.458,9.86,10.458,8.143,0,15.388-7.993,15.388-15.911C417.051,824.315,413.092,819.983,407.191,819.983Z" transform="translate(-385.752 -793.838)"/><path class="b" d="M491.432,846.831H460.879v.149c0,5.827,3.959,10.309,9.861,10.309,5.005,0,9.337-2.988,12.4-6.723l4.706,3.138a22.6,22.6,0,0,1-17.48,8.815,15.368,15.368,0,0,1-15.538-15.463c0-11.653,10.607-21.141,21.887-21.141a15.367,15.367,0,0,1,15.463,15.538A21.261,21.261,0,0,1,491.432,846.831Zm-15.164-15.688c-6.275,0-12.027,4.706-14.343,10.533h24.5v-.224A9.975,9.975,0,0,0,476.268,831.144Z" transform="translate(-409.788 -804.999)"/><path class="b" d="M570.948,828.206l-1.121,5.229-24.576,23.157h20.019l-1.12,5.229H536.735l1.121-5.229,24.576-23.157H543.01l1.121-5.229Z" transform="translate(-438.287 -805.796)"/><path class="b" d="M607.6,862.518a15.368,15.368,0,0,1-15.538-15.463c0-11.653,10.607-21.141,21.887-21.141a15.367,15.367,0,0,1,15.463,15.538C629.417,852.882,618.884,862.518,607.6,862.518Zm5.9-31.375c-8.067,0-15.388,7.844-15.388,15.836,0,5.827,3.959,10.309,9.86,10.309,8.142,0,15.388-7.843,15.388-15.836C623.366,835.626,619.407,831.144,613.505,831.144Z" transform="translate(-457.54 -804.999)"/><path class="b" d="M680.446,831.518a10.737,10.737,0,0,0-2.764-.374,12.513,12.513,0,0,0-11.728,9.562l-4.332,20.319h-5.976l7.171-33.616h5.976l-.822,3.81c2.465-3.959,6.349-5.3,10.458-5.3a22.071,22.071,0,0,1,3.138.224Z" transform="translate(-479.662 -804.999)"/><path class="b" d="M734.439,827.448l-7.993,37.575c-2.092,9.935-11.28,16.956-21.439,16.956a15.236,15.236,0,0,1-14.192-9.338l5.3-2.763a9.444,9.444,0,0,0,9.338,6.873,15.8,15.8,0,0,0,15.089-12.326l1.718-8.068a18.118,18.118,0,0,1-13.52,6.125c-7.694,0-14.94-5.229-14.94-15.388,0-12.774,11.429-21.066,21.289-21.066,5.005,0,9.637,2.017,12.326,6.275l1.046-4.856Zm-19.2,3.735c-8.068,0-15.388,7.694-15.388,15.688,0,5.826,3.959,10.458,9.86,10.458,8.142,0,15.388-7.993,15.388-15.911C725.1,835.516,721.142,831.183,715.24,831.183Z" transform="translate(-491.899 -805.039)"/><path class="b" d="M828.708,827.448l-7.246,33.616h-5.977l1.047-4.632a18.429,18.429,0,0,1-13.522,6.05c-7.693,0-14.94-5.229-14.94-15.388,0-12.774,11.43-21.066,21.29-21.066,5.005,0,9.636,2.017,12.325,6.275l1.047-4.856Zm-19.2,3.735c-8.068,0-15.388,7.694-15.388,15.688,0,5.826,3.959,10.458,9.86,10.458,8.142,0,15.388-7.993,15.388-15.911C819.371,835.516,815.411,831.183,809.51,831.183Z" transform="translate(-525.74 -805.039)"/><path class="b" d="M872.848,862.483c-4.93,0-9.637-1.942-12.326-6.275l-5.3,25.024h-5.976l11.5-53.784h5.976l-1.046,4.706a18.238,18.238,0,0,1,13.521-6.126c7.769,0,14.94,5.229,14.94,15.463C894.138,854.192,882.709,862.483,872.848,862.483Zm5.378-31.3c-8.068,0-15.388,7.993-15.388,15.986,0,5.826,3.959,10.159,9.86,10.159,8.142,0,15.388-7.694,15.388-15.687C888.087,835.815,884.128,831.183,878.227,831.183Z" transform="translate(-547.025 -805.039)"/><path class="b" d="M942.842,862.483c-4.931,0-9.637-1.942-12.326-6.275l-5.3,25.024h-5.976l11.5-53.784h5.976l-1.045,4.706a18.236,18.236,0,0,1,13.52-6.126c7.769,0,14.94,5.229,14.94,15.463C964.131,854.192,952.7,862.483,942.842,862.483Zm5.378-31.3c-8.068,0-15.388,7.993-15.388,15.986,0,5.826,3.959,10.159,9.86,10.159,8.142,0,15.388-7.694,15.388-15.687C958.08,835.815,954.121,831.183,948.22,831.183Z" transform="translate(-571.38 -805.039)"/></g></g></svg>